<svg xmlns="http://www.w3.org/2000/svg" viewBox="0 0 24 24"><defs><style>.cls-1{fill:#fff;}</style></defs><g id="Layer_2" data-name="Layer 2"><rect width="24" height="24"/></g><g id="Layer_1" data-name="Layer 1"><path class="cls-1" d="M4.24893,5.65133V1.7463h13.8363v3.905Z"/><path class="cls-1" d="M14.4859,13.52685a.59431.59431,0,0,1-.59326-.59325V10.56707a1.72761,1.72761,0,0,1,.52248-1.24568,1.75107,1.75107,0,0,1,1.23024-.48772l.15957.00263a1.73648,1.73648,0,0,1,1.6845,1.73468l.0103,1.13888a.5943.5943,0,0,1-.5881.59838h-.00514a.59314.59314,0,0,1-.59323-.58809l-.01031-1.144a.5437.5437,0,0,0-.51989-.55335l-.15957-.00264a.50314.50314,0,0,0-.37834.14928.55129.55129,0,0,0-.166.39762v2.36654A.59431.59431,0,0,1,14.4859,13.52685Z"/><path class="cls-1" d="M17.3543,22.39326H10.92644a1.4938,1.4938,0,0,1-1.35506-.86863c-.38346-.839-1.22252-2.32407-1.47088-2.76031L4.89494,14.039a1.72349,1.72349,0,0,1,.34359-2.32021l.17247-.14023a1.72858,1.72858,0,0,1,2.40771.21362l1.449,1.68322V6.50188a1.734,1.734,0,0,1,3.46808-.01035v5.61462a.59325.59325,0,1,1-1.18649.00541V6.50188a.54756.54756,0,1,0-1.0951-.00611v8.18154a.74.74,0,0,1-1.29717.48643L6.92045,12.56685a.54783.54783,0,0,0-.76183-.06821l-.17244.14027a.54593.54593,0,0,0-.10937.7348l3.25832,4.81156c.32171.56365,1.12214,1.98692,1.51464,2.84524a.29641.29641,0,0,0,.27673.1763h6.42785a.16417.16417,0,0,0,.15958-.12225l1.18-4.48856a.57374.57374,0,0,0,.018-.14027V11.715a.54838.54838,0,0,0-.54686-.54818c-.41952,0-.66531.2458-.66531.54818v2.02423a.59325.59325,0,1,1-1.18648.00541V11.715A1.73712,1.73712,0,0,1,18.048,9.98026a1.76491,1.76491,0,0,1,1.84864,1.677l.00186.05769v4.74078a1.7618,1.7618,0,0,1-.05666.43881L18.6618,21.38569A1.35223,1.35223,0,0,1,17.3543,22.39326Z"/><path class="cls-1" d="M12.13867,12.99152a.59432.59432,0,0,1-.59326-.59325V10.03045a1.76071,1.76071,0,0,1,.52376-1.25469,1.70979,1.70979,0,0,1,1.19806-.4787l.16086.00386a1.72013,1.72013,0,0,1,1.651,1.73339v1.11442a.59325.59325,0,0,1-1.18649.00541V10.03431a.52854.52854,0,0,0-.49029-.54686l-.16208-.00386h-.009a.47216.47216,0,0,0-.33207.139.56444.56444,0,0,0-.16735.40794v2.36781A.59432.59432,0,0,1,12.13867,12.99152Z"/></g></svg>