<svg xmlns="http://www.w3.org/2000/svg" viewBox="0 0 85.09766 15.9191"><defs><style>.cls-1{fill:#fff;}</style></defs><g id="Layer_2" data-name="Layer 2"><path class="cls-1" d="M14.57078,15.53267a11.68688,11.68688,0,0,0-1.81-.80371,5.303,5.303,0,0,0-1.72559-.31739,2.6866,2.6866,0,0,0-1.56641.40137,1.37963,1.37963,0,0,0-.57129,1.207,1.35581,1.35581,0,0,0,.43409.98438,4.18084,4.18084,0,0,0,1.12158.77246,15.28437,15.28437,0,0,0,1.42969.61426,11.75214,11.75214,0,0,1,1.34375.60351,5.04779,5.04779,0,0,1,1.19677.86719,3.81928,3.81928,0,0,1,.84668,1.292,5.00547,5.00547,0,0,1,.31739,1.89453,4.18227,4.18227,0,0,1-.61426,2.20117,4.47189,4.47189,0,0,1-1.79932,1.64063,6.21943,6.21943,0,0,1-2.92187.624,9.40476,9.40476,0,0,1-1.80957-.17969,9.28559,9.28559,0,0,1-3.52491-1.49218l1.355-2.39258a7.40542,7.40542,0,0,0,1.19581.71,7.23546,7.23546,0,0,0,1.30224.47559,4.83718,4.83718,0,0,0,1.20654.16992,4.04574,4.04574,0,0,0,1.11133-.15918,2.03936,2.03936,0,0,0,.93115-.54,1.45273,1.45273,0,0,0,.3711-1.05762,1.31491,1.31491,0,0,0-.30762-.84668,3.15049,3.15049,0,0,0-.82519-.69922,6.74892,6.74892,0,0,0-1.13282-.5498q-.72-.2754-1.48144-.63574a7.59085,7.59085,0,0,1-1.4292-.87793,3.79791,3.79791,0,0,1-1.49219-3.18653,4.45075,4.45075,0,0,1,.603-2.34961,4.29129,4.29129,0,0,1,1.7041-1.57714,5.94721,5.94721,0,0,1,2.54053-.645,8.81478,8.81478,0,0,1,3.05908.44384,10.70528,10.70528,0,0,1,2.106,1.0586Z" transform="translate(-4.91746 -11.59663)"/><path class="cls-1" d="M32.22508,11.76558V27.34517H29.15575v-6.3291H22.1909v6.3291H19.12157V11.76558H22.1909V18.0522h6.96485V11.76558Z" transform="translate(-4.91746 -11.59663)"/><path class="cls-1" d="M41.49657,11.76558a8.47471,8.47471,0,0,1,2.60351.36963,5.30125,5.30125,0,0,1,1.916,1.05859,4.495,4.495,0,0,1,1.1748,1.65137,5.57668,5.57668,0,0,1,.40235,2.16992,6.57633,6.57633,0,0,1-.28614,1.90527,4.93806,4.93806,0,0,1-.93066,1.73535,4.61967,4.61967,0,0,1-1.7041,1.25977,6.39956,6.39956,0,0,1-2.625.47656H39.8452v4.95313H36.77586V11.76558Zm.52929,7.66259a2.577,2.577,0,0,0,1.16406-.23339,1.986,1.986,0,0,0,.73047-.5918,2.42,2.42,0,0,0,.38086-.75195,2.55669,2.55669,0,0,0,.11719-.73047,3.67192,3.67192,0,0,0-.07422-.64551,2.54362,2.54362,0,0,0-.30762-.79395,1.8852,1.8852,0,0,0-.709-.67773,2.56368,2.56368,0,0,0-1.28027-.27441H39.8452v4.69921Zm2.87891,1.90528,3.85254,6.01172H45.18016l-3.9375-5.92676Z" transform="translate(-4.91746 -11.59663)"/><path class="cls-1" d="M50.45067,11.76558h10.5V14.729H57.1616V27.34517H54.09227V14.729h-3.6416Z" transform="translate(-4.91746 -11.59663)"/><path class="cls-1" d="M75.60008,26.05415a6.01333,6.01333,0,0,1-.94238.57129,8.54032,8.54032,0,0,1-1.68262.63477,7.70955,7.70955,0,0,1-2.20117.2539,8.77372,8.77372,0,0,1-3.292-.666A7.19886,7.19886,0,0,1,65.02586,25.144a7.493,7.493,0,0,1-1.53418-2.47753,8.33437,8.33437,0,0,1-.52929-2.98438,9.44555,9.44555,0,0,1,.54-3.25976,7.43034,7.43034,0,0,1,1.54493-2.56153,6.95976,6.95976,0,0,1,2.40234-1.67285,7.85691,7.85691,0,0,1,3.09082-.59131A8.37743,8.37743,0,0,1,73.314,12.019a9.64582,9.64582,0,0,1,1.96875.91016l-1.207,2.90039a8.84626,8.84626,0,0,0-1.40723-.83594A4.51389,4.51389,0,0,0,70.646,14.559a4.06937,4.06937,0,0,0-1.70313.3711A4.4421,4.4421,0,0,0,67.50242,15.978a5.06929,5.06929,0,0,0-.98339,1.57715,5.21553,5.21553,0,0,0-.36036,1.958,6.13617,6.13617,0,0,0,.32813,2.05273,4.55337,4.55337,0,0,0,.94238,1.59863,4.15736,4.15736,0,0,0,1.47071,1.02637,4.95843,4.95843,0,0,0,1.9375.36035,5.17085,5.17085,0,0,0,2.13769-.40234,4.90071,4.90071,0,0,0,1.35449-.84668Z" transform="translate(-4.91746 -11.59663)"/><path class="cls-1" d="M78.13914,14.729V11.76558h10.5V14.729Z" transform="translate(-4.91746 -11.59663)"/><path class="cls-1" d="M85.9077,20.70552a.451.451,0,0,1-.4502-.4502v-1.7959a1.311,1.311,0,0,1,.39649-.94531,1.32883,1.32883,0,0,1,.93359-.37012l.12109.002a1.31777,1.31777,0,0,1,1.27833,1.3164l.00781.86426a.451.451,0,0,1-.44629.4541h-.00391a.45013.45013,0,0,1-.45019-.44629l-.00782-.86816a.4126.4126,0,0,0-.39453-.41992l-.12109-.002a.3818.3818,0,0,0-.28711.11328.41838.41838,0,0,0-.126.30175v1.7959A.451.451,0,0,1,85.9077,20.70552Z" transform="translate(-4.91746 -11.59663)"/><path class="cls-1" d="M88.08446,27.434H83.20653a1.1336,1.1336,0,0,1-1.02832-.65918c-.291-.63671-.92774-1.76367-1.11621-2.09472l-2.43262-3.58594a1.3079,1.3079,0,0,1,.26074-1.76074L79.021,19.227a1.31178,1.31178,0,0,1,1.82715.16211l1.09961,1.27735v-5.292a1.31592,1.31592,0,1,1,2.63183,0v4.25293a.4502.4502,0,1,1-.90039,0V15.37446a.41553.41553,0,1,0-.83105,0v6.20411a.56154.56154,0,0,1-.98438.36914L80.16649,19.977a.41574.41574,0,0,0-.57813-.05176l-.13086.10645a.41429.41429,0,0,0-.083.55762l2.47265,3.65136c.24414.42774.85156,1.50782,1.14942,2.15918a.22493.22493,0,0,0,.21.13379h4.87793a.12457.12457,0,0,0,.12109-.09277l.89551-3.40625a.43583.43583,0,0,0,.01367-.10645V19.33052a.41615.41615,0,0,0-.415-.416c-.31836,0-.50488.18653-.50488.416v1.53613a.4502.4502,0,1,1-.90039,0V19.33052a1.31826,1.31826,0,0,1,1.3164-1.31641,1.33934,1.33934,0,0,1,1.4043,1.31641v3.59765a1.3373,1.3373,0,0,1-.043.333l-.89551,3.40821A1.02618,1.02618,0,0,1,88.08446,27.434Z" transform="translate(-4.91746 -11.59663)"/><path class="cls-1" d="M84.12645,20.29927a.451.451,0,0,1-.4502-.4502V18.0522a1.33611,1.33611,0,0,1,.39746-.95215,1.29753,1.29753,0,0,1,.90918-.36328l.12207.00293a1.30536,1.30536,0,0,1,1.25293,1.31543v.8457a.4502.4502,0,1,1-.90039,0v-.8457a.4011.4011,0,0,0-.37207-.415l-.123-.00293h-.00684a.35833.35833,0,0,0-.252.10547.42833.42833,0,0,0-.127.30957v1.79687A.451.451,0,0,1,84.12645,20.29927Z" transform="translate(-4.91746 -11.59663)"/></g></svg>